<svg width="60" height="60" viewBox="0 0 60 60" fill="none" xmlns="http://www.w3.org/2000/svg">
<path d="M54.9 35.121C54.9 43.6906 52.1117 48.6406 47.6245 51.4563C43.1264 54.2789 36.9021 54.9703 30 54.9703C23.0979 54.9703 16.8736 54.2789 12.3755 51.4563C7.88825 48.6406 5.1 43.6906 5.1 35.121C5.1 17.967 16.2674 4.1 30 4.1C43.7326 4.1 54.9 17.967 54.9 35.121Z" fill="#8F1818" stroke="#763434" stroke-width="0.2"/>
<path d="M45.1316 32.4654C46.8716 35.2445 47.282 36.989 47.0431 40.419" stroke="#F9E160" stroke-opacity="0.45" stroke-width="2" stroke-linecap="round"/>
<path d="M38.3334 34.1399C40.0734 36.919 40.4837 38.6635 40.2448 42.0934" stroke="#F9E160" stroke-opacity="0.45" stroke-width="2" stroke-linecap="round"/>
<path d="M31.5351 34.5585C31.7284 37.1913 31.774 38.844 31.7475 42.0934" stroke="#F9E160" stroke-opacity="0.45" stroke-width="2" stroke-linecap="round"/>
<path d="M15.5263 32.7794C13.1308 35.5585 12.5659 37.303 12.8947 40.733" stroke="#F9E160" stroke-opacity="0.45" stroke-width="2" stroke-linecap="round"/>
<path d="M15.5263 32.7794C13.1308 35.5585 12.5659 37.303 12.8947 40.733" stroke="#EBD563" stroke-opacity="0.45" stroke-width="2" stroke-linecap="round"/>
<path d="M24.3839 34.1399C21.9884 36.919 21.4234 38.6635 21.7523 42.0934" stroke="#F9E160" stroke-opacity="0.45" stroke-width="2" stroke-linecap="round"/>
<path d="M46.2281 24.381C46.2281 31.7069 39.0116 31.6282 30.1097 31.6282C21.2077 31.6282 13.9912 31.7069 13.9912 24.381C13.9912 17.0552 21.2077 11.1164 30.1097 11.1164C39.0116 11.1164 46.2281 17.0552 46.2281 24.381Z" fill="#FCB187"/>
<path d="M20.1698 17.6848C20.312 17.1782 20.8405 16.8733 21.3502 17.0036L25.1188 17.9674C25.6285 18.0977 25.9265 18.614 25.7842 19.1206V19.1206C25.642 19.6271 25.1135 19.9321 24.6038 19.8017L20.8352 18.838C20.3255 18.7076 20.0276 18.1913 20.1698 17.6848V17.6848Z" fill="#322B2B"/>
<path d="M32.8891 18.9113C32.7469 18.4047 33.0448 17.8884 33.5545 17.7581L37.3231 16.7943C37.8328 16.664 38.3613 16.9689 38.5035 17.4754V17.4754C38.6457 17.982 38.3478 18.4983 37.8381 18.6287L34.0695 19.5924C33.5598 19.7228 33.0313 19.4178 32.8891 18.9113V18.9113Z" fill="#322B2B"/>
<ellipse cx="23.2018" cy="23.256" rx="2.19298" ry="1.88374" fill="white"/>
<ellipse cx="1.09322" cy="0.944952" rx="1.09322" ry="0.944952" transform="matrix(0.96882 -0.247765 0.270293 0.962778 22.1053 22.5419)" fill="#080808"/>
<ellipse cx="36.7983" cy="23.256" rx="2.19298" ry="1.88374" fill="white"/>
<path d="M16.2784 38.0909V39.5114H10.625V38.0909H16.2784ZM12.2727 35.4773H13.9489V45.875C13.9489 46.3485 14.0175 46.7036 14.1548 46.9403C14.2969 47.1723 14.4768 47.3286 14.6946 47.4091C14.9171 47.4848 15.1515 47.5227 15.3977 47.5227C15.5824 47.5227 15.7339 47.5133 15.8523 47.4943C15.9706 47.4706 16.0653 47.4517 16.1364 47.4375L16.4773 48.9432C16.3636 48.9858 16.205 49.0284 16.0014 49.071C15.7978 49.1184 15.5398 49.142 15.2273 49.142C14.7538 49.142 14.2898 49.0402 13.8352 48.8366C13.3854 48.633 13.0114 48.3229 12.7131 47.9062C12.4195 47.4896 12.2727 46.964 12.2727 46.3295V35.4773ZM24.1122 49V47.7216L30.3054 39.767V39.6534H24.3111V38.0909H32.4645V39.4261L26.4418 47.3239V47.4375H32.6634V49H24.1122ZM47.745 44.5398V38.0909H49.4212V49H47.745V47.1534H47.6314C47.3757 47.7074 46.978 48.1785 46.4382 48.5668C45.8984 48.9503 45.2166 49.142 44.3928 49.142C43.7109 49.142 43.1049 48.9929 42.5746 48.6946C42.0443 48.3916 41.6276 47.937 41.3246 47.331C41.0215 46.7202 40.87 45.9508 40.87 45.0227V38.0909H42.5462V44.9091C42.5462 45.7045 42.7687 46.339 43.2138 46.8125C43.6636 47.286 44.2365 47.5227 44.9325 47.5227C45.3492 47.5227 45.773 47.4162 46.2038 47.2031C46.6394 46.9901 47.004 46.6634 47.2976 46.223C47.5959 45.7827 47.745 45.2216 47.745 44.5398Z" fill="white" fill-opacity="0.1"/>
</svg>
